<?xml version="1.0" standalone="no"?>
<!DOCTYPE svg PUBLIC "-//W3C//DTD SVG 20010904//EN"
 "http://www.w3.org/TR/2001/REC-SVG-20010904/DTD/svg10.dtd">
<svg version="1.0" xmlns="http://www.w3.org/2000/svg"
 width="93.000000pt" height="93.000000pt" viewBox="0 0 93.000000 93.000000"
 preserveAspectRatio="xMidYMid meet">
<metadata>
Created by potrace 1.11, written by Peter Selinger 2001-2013
</metadata>
<g transform="translate(0.000000,93.000000) scale(0.100000,-0.100000)"
fill="#000000" stroke="none">
<path d="M0 465 l0 -465 465 0 465 0 0 465 0 465 -465 0 -465 0 0 -465z m612
326 c74 -36 133 -94 170 -169 29 -59 33 -76 33 -152 0 -76 -3 -92 -33 -152
-59 -121 -158 -187 -293 -196 -124 -8 -234 42 -302 136 -143 198 -63 462 166
544 71 25 193 20 259 -11z"/>
</g>
</svg>
